<svg width="20" height="19" fill="none" xmlns="http://www.w3.org/2000/svg"><path fill-rule="evenodd" clip-rule="evenodd" d="M14.098 0c-1.303 0-2.143.155-3.106.626a5.55 5.55 0 00-1.001.63 5.67 5.67 0 00-.961-.6C8.048.17 7.165 0 5.91 0 2.544 0 .1 2.788.1 6.408c0 2.734 1.524 5.375 4.364 7.929 1.49 1.34 3.393 2.667 4.756 3.373l.78.403.78-.403c1.363-.706 3.266-2.033 4.756-3.373 2.84-2.554 4.364-5.195 4.364-7.93 0-3.58-2.468-6.392-5.802-6.407zM18.1 6.408c0 2.142-1.272 4.346-3.768 6.59-1.36 1.224-3.109 2.447-4.332 3.088-1.223-.641-2.972-1.864-4.332-3.087C3.172 10.754 1.9 8.55 1.9 6.408 1.9 3.733 3.595 1.8 5.91 1.8c.998 0 1.613.118 2.322.469.418.207.788.48 1.108.821l.662.707.656-.712a3.776 3.776 0 011.126-.842c.687-.336 1.264-.443 2.31-.443 2.285.01 4.006 1.97 4.006 4.608z" fill="#000"/></svg>