<svg width="46" height="46" fill="none" xmlns="http://www.w3.org/2000/svg"><path d="M4.313 29.469a2.156 2.156 0 100-4.313 2.156 2.156 0 000 4.313zM17.25 42.406a2.156 2.156 0 100-4.312 2.156 2.156 0 000 4.312zm-8.176-4.761a2.156 2.156 0 100-4.313 2.156 2.156 0 000 4.313z" fill="#8690FA"/><path d="M4.313 29.469a2.156 2.156 0 100-4.313 2.156 2.156 0 000 4.313zM19.406 40.25a2.155 2.155 0 10-4.31 0 2.155 2.155 0 004.31 0zM9.074 37.645a2.156 2.156 0 100-4.313 2.156 2.156 0 000 4.313z" fill="#FBD9DB"/><path d="M4.313 19.406a2.156 2.156 0 100-4.312 2.156 2.156 0 000 4.312zM17.25 6.469a2.156 2.156 0 100-4.313 2.156 2.156 0 000 4.313zM9.074 11.23a2.156 2.156 0 100-4.312 2.156 2.156 0 000 4.312z" fill="#8690FA"/><path d="M4.313 19.406a2.156 2.156 0 100-4.312 2.156 2.156 0 000 4.312zM19.406 4.313a2.156 2.156 0 11-4.311 0 2.156 2.156 0 014.311 0zM9.074 11.23a2.156 2.156 0 100-4.312 2.156 2.156 0 000 4.312zM28.03 42.41a2.156 2.156 0 01-.578-4.234 16.666 16.666 0 008.655-5.832 16.312 16.312 0 003.424-10.06c0-7.322-4.973-13.858-12.093-15.895a2.156 2.156 0 011.186-4.146 21.252 21.252 0 0110.87 7.375 20.71 20.71 0 01.026 25.362 21.007 21.007 0 01-10.91 7.35c-.188.053-.384.08-.58.08z" fill="#FBD9DB"/><path d="M40.971 43.842c-.08 0-.16-.004-.24-.013L27.793 42.39a2.154 2.154 0 01-1.84-2.72l3.595-12.938a2.157 2.157 0 114.155 1.155l-2.916 10.497 10.42 1.158a2.156 2.156 0 01-.236 4.299z" fill="#EB5757"/></svg>