<svg width="19" height="18" viewBox="0 0 19 18" fill="none" xmlns="http://www.w3.org/2000/svg">
<path fill-rule="evenodd" clip-rule="evenodd" d="M3.66412 1.8023C3.50428 1.80195 3.3502 1.82005 3.20378 1.85444C3.00307 1.41205 2.73794 1.01516 2.4364 0.713615C1.92459 0.20181 1.1174 1.14441e-05 0 1.14441e-05V1.80001C0.682603 1.80001 1.07541 1.89821 1.1636 1.98641C1.50378 2.32658 1.8 3.01777 1.8 3.60001L1.80905 3.72729L2.69093 9.90047C1.21532 9.97703 0.0721779 11.123 0.00110572 12.5554L0 13.5C0.0871391 14.9795 1.22648 16.1177 2.64892 16.1986L2.85323 16.1989C3.22356 17.2481 4.22398 18 5.4 18C6.5756 18 7.57571 17.2487 7.94636 16.2H10.0536C10.4243 17.2487 11.4244 18 12.6 18C14.0912 18 15.3 16.7912 15.3 15.3C15.3 13.8088 14.0912 12.6 12.6 12.6C11.4244 12.6 10.4243 13.3513 10.0536 14.4H7.94636C7.57571 13.3513 6.5756 12.6 5.4 12.6C4.2244 12.6 3.22429 13.3513 2.85364 14.4H2.7C2.24101 14.3725 1.82928 13.9612 1.79838 13.4461L1.8 12.6C1.82427 12.1332 2.23318 11.7243 2.7446 11.6989L4.52132 11.6993L4.5342 11.7H13.6052L13.738 11.6579C14.4204 11.4413 14.9667 10.9275 15.2253 10.2623L15.3201 10.0746L15.6282 9.4643C15.9469 8.83254 16.2656 8.19969 16.5762 7.58143C17.3369 6.06698 17.8153 5.10451 17.9213 4.86816C18.4654 3.65442 17.3632 2.72023 16.2366 2.70034L3.66412 1.8023ZM13.2924 9.89998H4.60154C4.54375 9.88392 4.49972 9.83497 4.4911 9.774L3.60919 3.60064L16.104 4.49542C15.8854 4.94127 15.4879 5.73763 14.9676 6.77346L14.9546 6.79942C14.6576 7.39066 14.3393 8.02263 14.0211 8.65355L13.7134 9.2631L13.5968 9.49394L13.5529 9.59598C13.5058 9.72696 13.4125 9.8346 13.2924 9.89998ZM12.6 16.1999C13.097 16.1999 13.5 15.797 13.5 15.2999C13.5 14.8029 13.097 14.3999 12.6 14.3999C12.1029 14.3999 11.7 14.8029 11.7 15.2999C11.7 15.797 12.1029 16.1999 12.6 16.1999ZM6.3 15.2999C6.3 15.797 5.89706 16.1999 5.4 16.1999C4.90294 16.1999 4.5 15.797 4.5 15.2999C4.5 14.8029 4.90294 14.3999 5.4 14.3999C5.89706 14.3999 6.3 14.8029 6.3 15.2999Z" fill="black"/>
</svg>
