<svg width="46" height="46" viewBox="0 0 46 46" fill="none" xmlns="http://www.w3.org/2000/svg">
<path d="M4.3125 29.4688C5.50336 29.4688 6.46875 28.5034 6.46875 27.3125C6.46875 26.1216 5.50336 25.1562 4.3125 25.1562C3.12164 25.1562 2.15625 26.1216 2.15625 27.3125C2.15625 28.5034 3.12164 29.4688 4.3125 29.4688Z" fill="#8690FA"/>
<path d="M17.25 42.4062C18.4409 42.4062 19.4062 41.4409 19.4062 40.25C19.4062 39.0591 18.4409 38.0938 17.25 38.0938C16.0591 38.0938 15.0938 39.0591 15.0938 40.25C15.0938 41.4409 16.0591 42.4062 17.25 42.4062Z" fill="#8690FA"/>
<path d="M9.07422 37.6445C10.2651 37.6445 11.2305 36.6791 11.2305 35.4883C11.2305 34.2974 10.2651 33.332 9.07422 33.332C7.88335 33.332 6.91797 34.2974 6.91797 35.4883C6.91797 36.6791 7.88335 37.6445 9.07422 37.6445Z" fill="#8690FA"/>
<path d="M4.3125 29.4688C5.50336 29.4688 6.46875 28.5034 6.46875 27.3125C6.46875 26.1216 5.50336 25.1562 4.3125 25.1562C3.12164 25.1562 2.15625 26.1216 2.15625 27.3125C2.15625 28.5034 3.12164 29.4688 4.3125 29.4688Z" fill="#FBD9DB"/>
<path d="M19.4062 40.25C19.4062 39.8235 19.2798 39.4066 19.0428 39.0521C18.8059 38.6975 18.4691 38.4211 18.0751 38.2579C17.6811 38.0947 17.2476 38.052 16.8293 38.1352C16.411 38.2184 16.0268 38.4237 15.7253 38.7253C15.4237 39.0269 15.2184 39.4111 15.1352 39.8293C15.052 40.2476 15.0947 40.6812 15.2579 41.0752C15.4211 41.4692 15.6974 41.8059 16.052 42.0429C16.4066 42.2798 16.8235 42.4063 17.25 42.4063C17.8219 42.4063 18.3703 42.1791 18.7747 41.7747C19.1791 41.3703 19.4062 40.8219 19.4062 40.25Z" fill="#FBD9DB"/>
<path d="M9.07422 37.6445C10.2651 37.6445 11.2305 36.6791 11.2305 35.4883C11.2305 34.2974 10.2651 33.332 9.07422 33.332C7.88335 33.332 6.91797 34.2974 6.91797 35.4883C6.91797 36.6791 7.88335 37.6445 9.07422 37.6445Z" fill="#FBD9DB"/>
<path d="M4.3125 19.4062C5.50336 19.4062 6.46875 18.4409 6.46875 17.25C6.46875 16.0591 5.50336 15.0938 4.3125 15.0938C3.12164 15.0938 2.15625 16.0591 2.15625 17.25C2.15625 18.4409 3.12164 19.4062 4.3125 19.4062Z" fill="#8690FA"/>
<path d="M17.25 6.46875C18.4409 6.46875 19.4062 5.50336 19.4062 4.3125C19.4062 3.12164 18.4409 2.15625 17.25 2.15625C16.0591 2.15625 15.0938 3.12164 15.0938 4.3125C15.0938 5.50336 16.0591 6.46875 17.25 6.46875Z" fill="#8690FA"/>
<path d="M9.07422 11.2305C10.2651 11.2305 11.2305 10.2651 11.2305 9.07422C11.2305 7.88335 10.2651 6.91797 9.07422 6.91797C7.88335 6.91797 6.91797 7.88335 6.91797 9.07422C6.91797 10.2651 7.88335 11.2305 9.07422 11.2305Z" fill="#8690FA"/>
<path d="M4.3125 19.4062C5.50336 19.4062 6.46875 18.4409 6.46875 17.25C6.46875 16.0591 5.50336 15.0938 4.3125 15.0938C3.12164 15.0938 2.15625 16.0591 2.15625 17.25C2.15625 18.4409 3.12164 19.4062 4.3125 19.4062Z" fill="#FBD9DB"/>
<path d="M19.4062 4.3125C19.4062 4.73896 19.2798 5.15585 19.0428 5.51044C18.8059 5.86504 18.4691 6.14141 18.0751 6.30461C17.6811 6.46781 17.2476 6.51051 16.8293 6.42731C16.411 6.34411 16.0268 6.13875 15.7253 5.83719C15.4237 5.53564 15.2184 5.15143 15.1352 4.73316C15.052 4.31489 15.0947 3.88134 15.2579 3.48734C15.4211 3.09333 15.6974 2.75657 16.052 2.51964C16.4066 2.28271 16.8235 2.15625 17.25 2.15625C17.8219 2.15625 18.3703 2.38343 18.7747 2.7878C19.1791 3.19218 19.4062 3.74063 19.4062 4.3125Z" fill="#FBD9DB"/>
<path d="M9.07422 11.2305C10.2651 11.2305 11.2305 10.2651 11.2305 9.07422C11.2305 7.88335 10.2651 6.91797 9.07422 6.91797C7.88335 6.91797 6.91797 7.88335 6.91797 9.07422C6.91797 10.2651 7.88335 11.2305 9.07422 11.2305Z" fill="#FBD9DB"/>
<path d="M28.0301 42.4097C27.5087 42.4098 27.0049 42.221 26.6121 41.8781C26.2192 41.5353 25.9638 41.0617 25.8933 40.5451C25.8228 40.0285 25.9418 39.5038 26.2285 39.0682C26.5151 38.6326 26.9498 38.3157 27.4522 38.176C30.887 37.2085 33.9206 35.1641 36.1066 32.3436C38.3387 29.4668 39.5441 25.9259 39.5309 22.2847C39.5309 14.9624 34.5581 8.42649 27.4379 6.38938C26.8931 6.22783 26.434 5.85774 26.1606 5.35958C25.8872 4.86141 25.8215 4.27545 25.9778 3.72909C26.134 3.18273 26.4997 2.72016 26.9952 2.44194C27.4907 2.16372 28.076 2.09235 28.6238 2.24336C32.9354 3.4919 36.741 6.07358 39.4949 9.61827C42.3094 13.245 43.8391 17.704 43.8436 22.2947C43.848 26.8854 42.3271 31.3474 39.5197 34.9796C36.7641 38.5344 32.9402 41.1108 28.6108 42.3299C28.4218 42.3828 28.2264 42.4096 28.0301 42.4097Z" fill="#FBD9DB"/>
<path d="M40.9714 43.842C40.891 43.842 40.8106 43.8376 40.7307 43.8287L27.7932 42.3912C27.4828 42.3568 27.1837 42.2553 26.9164 42.0938C26.6491 41.9323 26.42 41.7147 26.2451 41.456C26.0702 41.1973 25.9535 40.9037 25.9032 40.5955C25.8529 40.2873 25.8702 39.9718 25.9538 39.671L29.5475 26.7334C29.6222 26.4594 29.7504 26.2029 29.9245 25.9785C30.0987 25.7542 30.3155 25.5664 30.5624 25.4261C30.8093 25.2858 31.0815 25.1956 31.3634 25.1608C31.6453 25.126 31.9313 25.1472 32.2049 25.2232C32.4786 25.2992 32.7345 25.4286 32.9581 25.6038C33.1816 25.779 33.3683 25.9967 33.5075 26.2443C33.6466 26.4919 33.7355 26.7645 33.769 27.0465C33.8025 27.3286 33.7799 27.6145 33.7026 27.8878L30.7868 38.3849L41.2069 39.5427C41.7546 39.6034 42.2584 39.8715 42.6146 40.292C42.9708 40.7125 43.1526 41.2534 43.1224 41.8037C43.0923 42.354 42.8526 42.8719 42.4525 43.2509C42.0525 43.63 41.5225 43.8415 40.9714 43.842Z" fill="#EB5757"/>
</svg>
